<svg width="608" height="507" viewBox="0 0 608 507" fill="none" xmlns="http://www.w3.org/2000/svg">
<g opacity="0.72">
<path d="M234.909 465.613C234.909 423.641 248.883 382.774 274.78 349.013C300.677 315.251 337.133 290.374 378.795 278.032L438.728 465.613H234.909Z" fill="#CC00FF"/>
<path d="M234.909 465.613C234.909 423.641 248.883 382.774 274.78 349.013C300.677 315.251 337.133 290.374 378.795 278.032L438.728 465.613H234.909Z" stroke="black"/>
<path d="M309.818 370.215C348.454 389.647 392.542 396.641 435.609 390.169C478.677 383.697 518.455 364.101 549.105 334.257L404.182 196.258L309.818 370.215Z" fill="#FAA70D"/>
<path d="M407.636 234.42C407.636 276.392 393.662 317.259 367.765 351.02C341.868 384.782 305.413 409.66 263.751 422.002L203.818 234.42H407.636Z" fill="#12B503"/>
<path d="M418.94 497.351C460.386 484.352 496.412 458.902 521.73 424.736C547.048 390.57 560.324 349.488 559.609 307.521L355.818 310.742L418.94 497.351Z" fill="#FF0000"/>
</g>
<path d="M339.776 379.16C333.12 382.317 328.533 383.896 326.016 383.896C324.437 383.896 322.005 382.211 318.72 378.84C315.477 375.512 311.787 371.437 307.648 366.616C304.789 367.725 302.059 368.28 299.456 368.28C294.933 368.28 290.923 367.213 287.424 365.08C283.968 362.904 281.28 359.896 279.36 356.056C277.44 352.216 276.48 347.864 276.48 343C276.48 338.008 277.931 333.4 280.832 329.176C283.733 324.909 287.339 321.56 291.648 319.128C295.957 316.653 300.075 315.416 304 315.416C308.523 315.416 312.512 316.504 315.968 318.68C319.467 320.856 322.176 323.864 324.096 327.704C326.016 331.544 326.976 335.896 326.976 340.76C326.976 345.667 325.568 350.211 322.752 354.392C319.936 358.573 316.373 361.923 312.064 364.44C316.075 367.469 319.829 370.2 323.328 372.632C326.869 375.064 329.024 376.28 329.792 376.28H338.432L339.776 379.16ZM285.184 339.928C285.184 344.109 285.845 347.949 287.168 351.448C288.491 354.904 290.496 357.677 293.184 359.768C295.915 361.859 299.264 362.904 303.232 362.904C306.048 362.904 308.608 362.093 310.912 360.472C313.259 358.808 315.093 356.525 316.416 353.624C317.739 350.68 318.4 347.395 318.4 343.768C318.4 339.544 317.739 335.704 316.416 332.248C315.093 328.749 313.088 325.976 310.4 323.928C307.712 321.837 304.363 320.792 300.352 320.792C297.536 320.792 294.955 321.624 292.608 323.288C290.304 324.909 288.491 327.192 287.168 330.136C285.845 333.037 285.184 336.301 285.184 339.928ZM352.814 367H334.958V365.016L340.654 360.536V341.848L334.958 337.88V335.896L345.902 331.8H348.333V362.2L354.094 364.44L352.814 367ZM344.238 312.6C345.518 312.6 346.563 313.069 347.374 314.008C348.227 314.947 348.654 316.12 348.654 317.528C348.654 318.509 348.355 319.448 347.758 320.344C347.16 321.197 346.414 321.88 345.518 322.392C344.622 322.904 343.747 323.16 342.894 323.16C341.614 323.16 340.547 322.691 339.694 321.752C338.883 320.813 338.478 319.64 338.478 318.232C338.478 317.251 338.776 316.333 339.374 315.48C339.971 314.584 340.718 313.88 341.614 313.368C342.51 312.856 343.384 312.6 344.238 312.6ZM393.625 335L377.433 367L364.121 383.896L361.689 381.976C364.121 379.373 365.955 377.091 367.193 375.128C368.473 373.165 369.369 371.181 369.881 369.176C370.393 367.213 370.649 364.867 370.649 362.136L362.585 342.616L356.633 339.16V337.176L367.577 331.8L370.009 341.464L377.817 360.536L386.841 341.784L378.329 335.576L379.609 333.016H393.625V335ZM431.614 367H419.454V361.432L412.222 367.128C411.369 367.469 410.302 367.64 409.022 367.64C405.353 367.64 402.686 366.723 401.022 364.888C399.401 363.053 398.59 360.856 398.59 358.296C398.59 356.76 399.145 355.245 400.254 353.752C401.363 352.259 402.942 350.851 404.99 349.528H419.454V345.432C419.454 342.659 418.707 340.696 417.214 339.544C415.763 338.392 413.758 337.816 411.198 337.816C408.553 337.816 405.31 339.416 401.47 342.616L399.55 340.184L408.766 332.888C410.473 332.547 412.521 332.376 414.91 332.376C418.793 332.376 421.801 333.336 423.934 335.256C426.067 337.133 427.134 339.885 427.134 343.512V362.2L432.894 364.44L431.614 367ZM411.07 362.2C413.673 362.2 416.467 361.005 419.454 358.616V352.152H408.126C407.571 352.835 407.166 353.517 406.91 354.2C406.697 354.883 406.59 355.629 406.59 356.44C406.59 358.019 406.995 359.384 407.806 360.536C408.617 361.645 409.705 362.2 411.07 362.2ZM471.364 367H459.204V361.432L451.972 367.128C451.119 367.469 450.052 367.64 448.772 367.64C445.103 367.64 442.436 366.723 440.772 364.888C439.151 363.053 438.34 360.856 438.34 358.296C438.34 356.76 438.895 355.245 440.004 353.752C441.113 352.259 442.692 350.851 444.74 349.528H459.204V345.432C459.204 342.659 458.457 340.696 456.964 339.544C455.513 338.392 453.508 337.816 450.948 337.816C448.303 337.816 445.06 339.416 441.22 342.616L439.3 340.184L448.516 332.888C450.223 332.547 452.271 332.376 454.66 332.376C458.543 332.376 461.551 333.336 463.684 335.256C465.817 337.133 466.884 339.885 466.884 343.512V362.2L472.644 364.44L471.364 367ZM450.82 362.2C453.423 362.2 456.217 361.005 459.204 358.616V352.152H447.876C447.321 352.835 446.916 353.517 446.66 354.2C446.447 354.883 446.34 355.629 446.34 356.44C446.34 358.019 446.745 359.384 447.556 360.536C448.367 361.645 449.455 362.2 450.82 362.2ZM498.378 360.088C498.378 358.893 497.717 357.805 496.394 356.824C495.071 355.8 493.045 354.584 490.314 353.176C488.095 352.024 486.303 351.021 484.938 350.168C483.573 349.315 482.399 348.333 481.418 347.224C480.479 346.072 480.01 344.835 480.01 343.512C480.01 341.976 480.65 340.333 481.93 338.584C483.21 336.835 484.789 335.363 486.666 334.168C488.543 332.973 490.293 332.376 491.914 332.376C493.877 332.376 496.138 332.632 498.698 333.144C501.301 333.613 503.178 334.147 504.33 334.744V344.6H501.898C500.533 341.955 498.954 339.907 497.162 338.456C495.37 336.963 493.535 336.216 491.658 336.216C490.335 336.216 489.269 336.579 488.458 337.304C487.647 337.987 487.242 338.861 487.242 339.928C487.242 341.251 487.925 342.445 489.29 343.512C490.698 344.536 492.81 345.752 495.626 347.16C497.802 348.269 499.551 349.229 500.874 350.04C502.197 350.851 503.306 351.811 504.202 352.92C505.141 353.987 505.61 355.181 505.61 356.504C505.61 358.083 504.927 359.747 503.562 361.496C502.239 363.203 500.597 364.653 498.634 365.848C496.714 367.043 494.943 367.64 493.322 367.64C491.231 367.64 488.735 367.405 485.834 366.936C482.975 366.424 480.927 365.869 479.69 365.272V355.416H482.122C483.615 358.061 485.386 360.131 487.434 361.624C489.482 363.075 491.551 363.8 493.642 363.8C495.05 363.8 496.181 363.437 497.034 362.712C497.93 361.987 498.378 361.112 498.378 360.088Z" fill="black"/>
</svg>
