<svg width="356" height="302" viewBox="0 0 356 302" fill="none" xmlns="http://www.w3.org/2000/svg">
<path d="M31.0912 269.355C31.0912 227.383 45.0654 186.517 70.9623 152.755C96.8593 118.994 133.315 94.1157 174.976 81.7738L234.909 269.355H31.0912Z" fill="white"/>
<path d="M106 173.957C144.636 193.389 188.724 200.383 231.791 193.911C274.859 187.439 314.637 167.843 345.287 137.999L200.364 0L106 173.957Z" fill="white"/>
<path d="M203.818 38.1621C203.818 80.1342 189.844 121.001 163.947 154.762C138.05 188.524 101.595 213.402 59.9329 225.744L0 38.1621H203.818Z" fill="#CCCCCC" fill-opacity="0.5"/>
<path d="M215.122 301.093C256.568 288.094 292.594 262.644 317.912 228.478C343.23 194.311 356.506 153.23 355.791 111.263L152 114.484L215.122 301.093Z" fill="#CCCCCC" fill-opacity="0.5"/>
<path d="M131.958 190.902C125.302 194.059 120.715 195.638 118.198 195.638C116.619 195.638 114.187 193.953 110.902 190.582C107.659 187.254 103.969 183.179 99.8298 178.358C96.9712 179.467 94.2405 180.022 91.6378 180.022C87.1152 180.022 83.1045 178.955 79.6058 176.822C76.1498 174.646 73.4618 171.638 71.5418 167.798C69.6218 163.958 68.6618 159.606 68.6618 154.742C68.6618 149.75 70.1125 145.142 73.0138 140.918C75.9152 136.651 79.5205 133.302 83.8298 130.87C88.1392 128.395 92.2565 127.158 96.1818 127.158C100.705 127.158 104.694 128.246 108.15 130.422C111.649 132.598 114.358 135.606 116.278 139.446C118.198 143.286 119.158 147.638 119.158 152.502C119.158 157.409 117.75 161.953 114.934 166.134C112.118 170.315 108.555 173.665 104.246 176.182C108.257 179.211 112.011 181.942 115.51 184.374C119.051 186.806 121.206 188.022 121.974 188.022H130.614L131.958 190.902ZM77.3658 151.67C77.3658 155.851 78.0272 159.691 79.3498 163.19C80.6725 166.646 82.6778 169.419 85.3658 171.51C88.0965 173.601 91.4458 174.646 95.4138 174.646C98.2298 174.646 100.79 173.835 103.094 172.214C105.441 170.55 107.275 168.267 108.598 165.366C109.921 162.422 110.582 159.137 110.582 155.51C110.582 151.286 109.921 147.446 108.598 143.99C107.275 140.491 105.27 137.718 102.582 135.67C99.8938 133.579 96.5445 132.534 92.5338 132.534C89.7178 132.534 87.1365 133.366 84.7898 135.03C82.4858 136.651 80.6725 138.934 79.3498 141.878C78.0272 144.779 77.3658 148.043 77.3658 151.67Z" fill="white"/>
<path d="M144.995 178.742H127.139V176.758L132.835 172.278V153.59L127.139 149.622V147.638L138.083 143.542H140.515V173.942L146.275 176.182L144.995 178.742ZM136.419 124.342C137.699 124.342 138.745 124.811 139.555 125.75C140.409 126.689 140.835 127.862 140.835 129.27C140.835 130.251 140.537 131.19 139.939 132.086C139.342 132.939 138.595 133.622 137.699 134.134C136.803 134.646 135.929 134.902 135.075 134.902C133.795 134.902 132.729 134.433 131.875 133.494C131.065 132.555 130.659 131.382 130.659 129.974C130.659 128.993 130.958 128.075 131.555 127.222C132.153 126.326 132.899 125.622 133.795 125.11C134.691 124.598 135.566 124.342 136.419 124.342Z" fill="white"/>
<path d="M185.806 146.742L169.614 178.742L156.302 195.638L153.87 193.718C156.302 191.115 158.137 188.833 159.374 186.87C160.654 184.907 161.55 182.923 162.062 180.918C162.574 178.955 162.83 176.609 162.83 173.878L154.766 154.358L148.814 150.902V148.918L159.758 143.542L162.19 153.206L169.998 172.278L179.022 153.526L170.51 147.318L171.79 144.758H185.806V146.742Z" fill="white"/>
<path d="M223.796 178.742H211.636V173.174L204.404 178.87C203.551 179.211 202.484 179.382 201.204 179.382C197.535 179.382 194.868 178.465 193.204 176.63C191.583 174.795 190.772 172.598 190.772 170.038C190.772 168.502 191.327 166.987 192.436 165.494C193.545 164.001 195.124 162.593 197.172 161.27H211.636V157.174C211.636 154.401 210.889 152.438 209.396 151.286C207.945 150.134 205.94 149.558 203.38 149.558C200.735 149.558 197.492 151.158 193.652 154.358L191.732 151.926L200.948 144.63C202.655 144.289 204.703 144.118 207.092 144.118C210.975 144.118 213.983 145.078 216.116 146.998C218.249 148.875 219.316 151.627 219.316 155.254V173.942L225.076 176.182L223.796 178.742ZM203.252 173.942C205.855 173.942 208.649 172.747 211.636 170.358V163.894H200.308C199.753 164.577 199.348 165.259 199.092 165.942C198.879 166.625 198.772 167.371 198.772 168.182C198.772 169.761 199.177 171.126 199.988 172.278C200.799 173.387 201.887 173.942 203.252 173.942Z" fill="white"/>
<path d="M263.546 178.742H251.386V173.174L244.154 178.87C243.301 179.211 242.234 179.382 240.954 179.382C237.285 179.382 234.618 178.465 232.954 176.63C231.333 174.795 230.522 172.598 230.522 170.038C230.522 168.502 231.077 166.987 232.186 165.494C233.295 164.001 234.874 162.593 236.922 161.27H251.386V157.174C251.386 154.401 250.639 152.438 249.146 151.286C247.695 150.134 245.69 149.558 243.13 149.558C240.485 149.558 237.242 151.158 233.402 154.358L231.482 151.926L240.698 144.63C242.405 144.289 244.453 144.118 246.842 144.118C250.725 144.118 253.733 145.078 255.866 146.998C257.999 148.875 259.066 151.627 259.066 155.254V173.942L264.826 176.182L263.546 178.742ZM243.002 173.942C245.605 173.942 248.399 172.747 251.386 170.358V163.894H240.058C239.503 164.577 239.098 165.259 238.842 165.942C238.629 166.625 238.522 167.371 238.522 168.182C238.522 169.761 238.927 171.126 239.738 172.278C240.549 173.387 241.637 173.942 243.002 173.942Z" fill="white"/>
<path d="M290.56 171.83C290.56 170.635 289.899 169.547 288.576 168.566C287.253 167.542 285.227 166.326 282.496 164.918C280.277 163.766 278.485 162.763 277.12 161.91C275.755 161.057 274.581 160.075 273.6 158.966C272.661 157.814 272.192 156.577 272.192 155.254C272.192 153.718 272.832 152.075 274.112 150.326C275.392 148.577 276.971 147.105 278.848 145.91C280.725 144.715 282.475 144.118 284.096 144.118C286.059 144.118 288.32 144.374 290.88 144.886C293.483 145.355 295.36 145.889 296.512 146.486V156.342H294.08C292.715 153.697 291.136 151.649 289.344 150.198C287.552 148.705 285.717 147.958 283.84 147.958C282.517 147.958 281.45 148.321 280.64 149.046C279.829 149.729 279.424 150.603 279.424 151.67C279.424 152.993 280.106 154.187 281.472 155.254C282.88 156.278 284.992 157.494 287.808 158.902C289.984 160.011 291.733 160.971 293.056 161.782C294.379 162.593 295.488 163.553 296.384 164.662C297.323 165.729 297.792 166.923 297.792 168.246C297.792 169.825 297.109 171.489 295.744 173.238C294.421 174.945 292.778 176.395 290.816 177.59C288.896 178.785 287.125 179.382 285.504 179.382C283.413 179.382 280.917 179.147 278.016 178.678C275.157 178.166 273.109 177.611 271.872 177.014V167.158H274.304C275.797 169.803 277.568 171.873 279.616 173.366C281.664 174.817 283.733 175.542 285.824 175.542C287.232 175.542 288.363 175.179 289.216 174.454C290.112 173.729 290.56 172.854 290.56 171.83Z" fill="white"/>
</svg>
