<svg width="3697" height="3029" viewBox="0 0 3697 3029" fill="none" xmlns="http://www.w3.org/2000/svg">
<g opacity="0.55">
<path d="M1413 3028.69C1413 2844.16 1471.08 2664.5 1578.71 2516.07C1686.35 2367.63 1837.87 2258.26 2011.02 2204L2260.12 3028.69H1413Z" fill="#CC00FF"/>
<path d="M1413 3028.69C1413 2844.16 1471.08 2664.5 1578.71 2516.07C1686.35 2367.63 1837.87 2258.26 2011.02 2204L2260.12 3028.69H1413Z" stroke="black"/>
<path d="M2334.92 1627.63C2495.5 1713.06 2678.74 1743.81 2857.74 1715.36C3036.74 1686.91 3202.07 1600.75 3329.46 1469.54L2727.12 862.839L2334.92 1627.63Z" fill="#FAA70D"/>
<path d="M1694.24 1248.84C1694.24 1433.37 1636.16 1613.03 1528.52 1761.47C1420.89 1909.9 1269.37 2019.27 1096.22 2073.53L847.119 1248.84H1694.24Z" fill="#12B503"/>
<path d="M3111.47 2986.26C3283.73 2929.11 3433.46 2817.22 3538.69 2667.01C3643.92 2516.8 3699.1 2336.18 3696.12 2151.68L2849.12 2165.84L3111.47 2986.26Z" fill="#FF0000"/>
</g>
</svg>
