<svg width="709" height="383" viewBox="0 0 709 383" fill="none" xmlns="http://www.w3.org/2000/svg">
<g filter="url(#filter0_dddddd_1172_9)">
<rect x="163.992" y="184.752" width="185" height="16" fill="#CC00FF" fill-opacity="0.5"/>
</g>
<g filter="url(#filter1_dddddd_1172_9)">
<rect x="394.979" y="185.027" width="185" height="16" fill="#CC00FF" fill-opacity="0.5"/>
</g>
<g filter="url(#filter2_dddddd_1172_9)">
<rect x="271.979" y="103.543" width="175" height="181" rx="58" transform="rotate(-0.169103 271.979 103.543)" fill="#74A8DC"/>
</g>
<g filter="url(#filter3_dddddd_1172_9)">
<rect x="487.979" y="102.543" width="175" height="181" rx="58" transform="rotate(-0.169103 487.979 102.543)" fill="#E06666"/>
</g>
<g filter="url(#filter4_dddddd_1172_9)">
<rect x="55.9922" y="102.543" width="175" height="181" rx="58" transform="rotate(-0.169103 55.9922 102.543)" fill="#6AA84F"/>
</g>
<g filter="url(#filter5_dddddd_1172_9)">
<path d="M246.544 253.072C233.232 259.387 224.059 262.544 219.024 262.544C215.867 262.544 211.003 259.173 204.432 252.432C197.947 245.776 190.566 237.627 182.288 227.984C176.571 230.203 171.11 231.312 165.904 231.312C156.859 231.312 148.838 229.179 141.84 224.912C134.928 220.56 129.552 214.544 125.712 206.864C121.872 199.184 119.952 190.48 119.952 180.752C119.952 170.768 122.854 161.552 128.656 153.104C134.459 144.571 141.67 137.872 150.288 133.008C158.907 128.059 167.142 125.584 174.992 125.584C184.038 125.584 192.016 127.76 198.928 132.112C205.926 136.464 211.344 142.48 215.184 150.16C219.024 157.84 220.944 166.544 220.944 176.272C220.944 186.085 218.128 195.173 212.496 203.536C206.864 211.899 199.739 218.597 191.12 223.632C199.142 229.691 206.651 235.152 213.648 240.016C220.731 244.88 225.04 247.312 226.576 247.312H243.856L246.544 253.072ZM137.36 174.608C137.36 182.971 138.683 190.651 141.328 197.648C143.974 204.56 147.984 210.107 153.36 214.288C158.822 218.469 165.52 220.56 173.456 220.56C179.088 220.56 184.208 218.939 188.816 215.696C193.51 212.368 197.179 207.803 199.824 202C202.47 196.112 203.792 189.541 203.792 182.288C203.792 173.84 202.47 166.16 199.824 159.248C197.179 152.251 193.168 146.704 187.792 142.608C182.416 138.427 175.718 136.336 167.696 136.336C162.064 136.336 156.902 138 152.208 141.328C147.6 144.571 143.974 149.136 141.328 155.024C138.683 160.827 137.36 167.355 137.36 174.608ZM272.619 228.752H236.907V224.784L248.299 215.824V178.448L236.907 170.512V166.544L258.795 158.352H263.659V219.152L275.179 223.632L272.619 228.752ZM255.467 119.952C258.027 119.952 260.118 120.891 261.739 122.768C263.446 124.645 264.299 126.992 264.299 129.808C264.299 131.771 263.702 133.648 262.507 135.44C261.313 137.147 259.819 138.512 258.027 139.536C256.235 140.56 254.486 141.072 252.779 141.072C250.219 141.072 248.086 140.133 246.379 138.256C244.758 136.379 243.947 134.032 243.947 131.216C243.947 129.253 244.545 127.419 245.739 125.712C246.934 123.92 248.427 122.512 250.219 121.488C252.011 120.464 253.761 119.952 255.467 119.952ZM354.241 164.752L321.857 228.752L295.233 262.544L290.369 258.704C295.233 253.499 298.903 248.933 301.377 245.008C303.937 241.083 305.729 237.115 306.753 233.104C307.777 229.179 308.289 224.485 308.289 219.024L292.161 179.984L280.257 173.072V169.104L302.145 158.352L307.009 177.68L322.625 215.824L340.673 178.32L323.649 165.904L326.209 160.784H354.241V164.752ZM430.22 228.752H405.9V217.616L391.436 229.008C389.73 229.691 387.596 230.032 385.036 230.032C377.698 230.032 372.364 228.197 369.036 224.528C365.794 220.859 364.172 216.464 364.172 211.344C364.172 208.272 365.282 205.243 367.5 202.256C369.719 199.269 372.876 196.453 376.972 193.808H405.9V185.616C405.9 180.069 404.407 176.144 401.42 173.84C398.519 171.536 394.508 170.384 389.388 170.384C384.098 170.384 377.612 173.584 369.932 179.984L366.092 175.12L384.524 160.528C387.938 159.845 392.034 159.504 396.812 159.504C404.578 159.504 410.594 161.424 414.86 165.264C419.127 169.019 421.26 174.523 421.26 181.776V219.152L432.78 223.632L430.22 228.752ZM389.132 219.152C394.338 219.152 399.927 216.763 405.9 211.984V199.056H383.244C382.135 200.421 381.324 201.787 380.812 203.152C380.386 204.517 380.172 206.011 380.172 207.632C380.172 210.789 380.983 213.52 382.604 215.824C384.226 218.043 386.402 219.152 389.132 219.152ZM509.72 228.752H485.4V217.616L470.936 229.008C469.23 229.691 467.096 230.032 464.536 230.032C457.198 230.032 451.864 228.197 448.536 224.528C445.294 220.859 443.672 216.464 443.672 211.344C443.672 208.272 444.782 205.243 447 202.256C449.219 199.269 452.376 196.453 456.472 193.808H485.4V185.616C485.4 180.069 483.907 176.144 480.92 173.84C478.019 171.536 474.008 170.384 468.888 170.384C463.598 170.384 457.112 173.584 449.432 179.984L445.592 175.12L464.024 160.528C467.438 159.845 471.534 159.504 476.312 159.504C484.078 159.504 490.094 161.424 494.36 165.264C498.627 169.019 500.76 174.523 500.76 181.776V219.152L512.28 223.632L509.72 228.752ZM468.632 219.152C473.838 219.152 479.427 216.763 485.4 211.984V199.056H462.744C461.635 200.421 460.824 201.787 460.312 203.152C459.886 204.517 459.672 206.011 459.672 207.632C459.672 210.789 460.483 213.52 462.104 215.824C463.726 218.043 465.902 219.152 468.632 219.152ZM563.748 214.928C563.748 212.539 562.426 210.363 559.78 208.4C557.135 206.352 553.082 203.92 547.62 201.104C543.183 198.8 539.599 196.795 536.868 195.088C534.138 193.381 531.791 191.419 529.828 189.2C527.951 186.896 527.012 184.421 527.012 181.776C527.012 178.704 528.292 175.419 530.852 171.92C533.412 168.421 536.57 165.477 540.324 163.088C544.079 160.699 547.578 159.504 550.82 159.504C554.746 159.504 559.268 160.016 564.388 161.04C569.594 161.979 573.348 163.045 575.652 164.24V183.952H570.788C568.058 178.661 564.9 174.565 561.316 171.664C557.732 168.677 554.063 167.184 550.308 167.184C547.663 167.184 545.53 167.909 543.908 169.36C542.287 170.725 541.476 172.475 541.476 174.608C541.476 177.253 542.842 179.643 545.572 181.776C548.388 183.824 552.612 186.256 558.244 189.072C562.596 191.291 566.095 193.211 568.74 194.832C571.386 196.453 573.604 198.373 575.396 200.592C577.274 202.725 578.212 205.115 578.212 207.76C578.212 210.917 576.847 214.245 574.116 217.744C571.471 221.157 568.186 224.059 564.26 226.448C560.42 228.837 556.879 230.032 553.636 230.032C549.455 230.032 544.463 229.563 538.66 228.624C532.943 227.6 528.847 226.491 526.372 225.296V205.584H531.236C534.223 210.875 537.764 215.013 541.86 218C545.956 220.901 550.095 222.352 554.276 222.352C557.092 222.352 559.354 221.627 561.06 220.176C562.852 218.725 563.748 216.976 563.748 214.928Z" fill="white"/>
</g>
<defs>
<filter id="filter0_dddddd_1172_9" x="117.372" y="138.132" width="278.24" height="109.24" filterUnits="userSpaceOnUse" color-interpolation-filters="sRGB">
<feFlood flood-opacity="0" result="BackgroundImageFix"/>
<feColorMatrix in="SourceAlpha" type="matrix" values="0 0 0 0 0 0 0 0 0 0 0 0 0 0 0 0 0 0 127 0" result="hardAlpha"/>
<feOffset/>
<feGaussianBlur stdDeviation="0.555"/>
<feColorMatrix type="matrix" values="0 0 0 0 0.8 0 0 0 0 0 0 0 0 0 1 0 0 0 0.5 0"/>
<feBlend mode="normal" in2="BackgroundImageFix" result="effect1_dropShadow_1172_9"/>
<feColorMatrix in="SourceAlpha" type="matrix" values="0 0 0 0 0 0 0 0 0 0 0 0 0 0 0 0 0 0 127 0" result="hardAlpha"/>
<feOffset/>
<feGaussianBlur stdDeviation="1.11"/>
<feColorMatrix type="matrix" values="0 0 0 0 0.8 0 0 0 0 0 0 0 0 0 1 0 0 0 0.5 0"/>
<feBlend mode="normal" in2="effect1_dropShadow_1172_9" result="effect2_dropShadow_1172_9"/>
<feColorMatrix in="SourceAlpha" type="matrix" values="0 0 0 0 0 0 0 0 0 0 0 0 0 0 0 0 0 0 127 0" result="hardAlpha"/>
<feOffset/>
<feGaussianBlur stdDeviation="3.885"/>
<feColorMatrix type="matrix" values="0 0 0 0 0.8 0 0 0 0 0 0 0 0 0 1 0 0 0 0.5 0"/>
<feBlend mode="normal" in2="effect2_dropShadow_1172_9" result="effect3_dropShadow_1172_9"/>
<feColorMatrix in="SourceAlpha" type="matrix" values="0 0 0 0 0 0 0 0 0 0 0 0 0 0 0 0 0 0 127 0" result="hardAlpha"/>
<feOffset/>
<feGaussianBlur stdDeviation="7.77"/>
<feColorMatrix type="matrix" values="0 0 0 0 0.8 0 0 0 0 0 0 0 0 0 1 0 0 0 0.5 0"/>
<feBlend mode="normal" in2="effect3_dropShadow_1172_9" result="effect4_dropShadow_1172_9"/>
<feColorMatrix in="SourceAlpha" type="matrix" values="0 0 0 0 0 0 0 0 0 0 0 0 0 0 0 0 0 0 127 0" result="hardAlpha"/>
<feOffset/>
<feGaussianBlur stdDeviation="13.32"/>
<feColorMatrix type="matrix" values="0 0 0 0 0.8 0 0 0 0 0 0 0 0 0 1 0 0 0 0.5 0"/>
<feBlend mode="normal" in2="effect4_dropShadow_1172_9" result="effect5_dropShadow_1172_9"/>
<feColorMatrix in="SourceAlpha" type="matrix" values="0 0 0 0 0 0 0 0 0 0 0 0 0 0 0 0 0 0 127 0" result="hardAlpha"/>
<feOffset/>
<feGaussianBlur stdDeviation="23.31"/>
<feColorMatrix type="matrix" values="0 0 0 0 0.8 0 0 0 0 0 0 0 0 0 1 0 0 0 0.5 0"/>
<feBlend mode="normal" in2="effect5_dropShadow_1172_9" result="effect6_dropShadow_1172_9"/>
<feBlend mode="normal" in="SourceGraphic" in2="effect6_dropShadow_1172_9" result="shape"/>
</filter>
<filter id="filter1_dddddd_1172_9" x="348.359" y="138.407" width="278.24" height="109.24" filterUnits="userSpaceOnUse" color-interpolation-filters="sRGB">
<feFlood flood-opacity="0" result="BackgroundImageFix"/>
<feColorMatrix in="SourceAlpha" type="matrix" values="0 0 0 0 0 0 0 0 0 0 0 0 0 0 0 0 0 0 127 0" result="hardAlpha"/>
<feOffset/>
<feGaussianBlur stdDeviation="0.555"/>
<feColorMatrix type="matrix" values="0 0 0 0 0.8 0 0 0 0 0 0 0 0 0 1 0 0 0 0.5 0"/>
<feBlend mode="normal" in2="BackgroundImageFix" result="effect1_dropShadow_1172_9"/>
<feColorMatrix in="SourceAlpha" type="matrix" values="0 0 0 0 0 0 0 0 0 0 0 0 0 0 0 0 0 0 127 0" result="hardAlpha"/>
<feOffset/>
<feGaussianBlur stdDeviation="1.11"/>
<feColorMatrix type="matrix" values="0 0 0 0 0.8 0 0 0 0 0 0 0 0 0 1 0 0 0 0.5 0"/>
<feBlend mode="normal" in2="effect1_dropShadow_1172_9" result="effect2_dropShadow_1172_9"/>
<feColorMatrix in="SourceAlpha" type="matrix" values="0 0 0 0 0 0 0 0 0 0 0 0 0 0 0 0 0 0 127 0" result="hardAlpha"/>
<feOffset/>
<feGaussianBlur stdDeviation="3.885"/>
<feColorMatrix type="matrix" values="0 0 0 0 0.8 0 0 0 0 0 0 0 0 0 1 0 0 0 0.5 0"/>
<feBlend mode="normal" in2="effect2_dropShadow_1172_9" result="effect3_dropShadow_1172_9"/>
<feColorMatrix in="SourceAlpha" type="matrix" values="0 0 0 0 0 0 0 0 0 0 0 0 0 0 0 0 0 0 127 0" result="hardAlpha"/>
<feOffset/>
<feGaussianBlur stdDeviation="7.77"/>
<feColorMatrix type="matrix" values="0 0 0 0 0.8 0 0 0 0 0 0 0 0 0 1 0 0 0 0.5 0"/>
<feBlend mode="normal" in2="effect3_dropShadow_1172_9" result="effect4_dropShadow_1172_9"/>
<feColorMatrix in="SourceAlpha" type="matrix" values="0 0 0 0 0 0 0 0 0 0 0 0 0 0 0 0 0 0 127 0" result="hardAlpha"/>
<feOffset/>
<feGaussianBlur stdDeviation="13.32"/>
<feColorMatrix type="matrix" values="0 0 0 0 0.8 0 0 0 0 0 0 0 0 0 1 0 0 0 0.5 0"/>
<feBlend mode="normal" in2="effect4_dropShadow_1172_9" result="effect5_dropShadow_1172_9"/>
<feColorMatrix in="SourceAlpha" type="matrix" values="0 0 0 0 0 0 0 0 0 0 0 0 0 0 0 0 0 0 127 0" result="hardAlpha"/>
<feOffset/>
<feGaussianBlur stdDeviation="23.31"/>
<feColorMatrix type="matrix" values="0 0 0 0 0.8 0 0 0 0 0 0 0 0 0 1 0 0 0 0.5 0"/>
<feBlend mode="normal" in2="effect5_dropShadow_1172_9" result="effect6_dropShadow_1172_9"/>
<feBlend mode="normal" in="SourceGraphic" in2="effect6_dropShadow_1172_9" result="shape"/>
</filter>
<filter id="filter2_dddddd_1172_9" x="226.538" y="57.586" width="266.415" height="272.398" filterUnits="userSpaceOnUse" color-interpolation-filters="sRGB">
<feFlood flood-opacity="0" result="BackgroundImageFix"/>
<feColorMatrix in="SourceAlpha" type="matrix" values="0 0 0 0 0 0 0 0 0 0 0 0 0 0 0 0 0 0 127 0" result="hardAlpha"/>
<feOffset/>
<feGaussianBlur stdDeviation="0.543"/>
<feColorMatrix type="matrix" values="0 0 0 0 0.454902 0 0 0 0 0.658824 0 0 0 0 0.862745 0 0 0 1 0"/>
<feBlend mode="normal" in2="BackgroundImageFix" result="effect1_dropShadow_1172_9"/>
<feColorMatrix in="SourceAlpha" type="matrix" values="0 0 0 0 0 0 0 0 0 0 0 0 0 0 0 0 0 0 127 0" result="hardAlpha"/>
<feOffset/>
<feGaussianBlur stdDeviation="1.086"/>
<feColorMatrix type="matrix" values="0 0 0 0 0.454902 0 0 0 0 0.658824 0 0 0 0 0.862745 0 0 0 1 0"/>
<feBlend mode="normal" in2="effect1_dropShadow_1172_9" result="effect2_dropShadow_1172_9"/>
<feColorMatrix in="SourceAlpha" type="matrix" values="0 0 0 0 0 0 0 0 0 0 0 0 0 0 0 0 0 0 127 0" result="hardAlpha"/>
<feOffset/>
<feGaussianBlur stdDeviation="3.801"/>
<feColorMatrix type="matrix" values="0 0 0 0 0.454902 0 0 0 0 0.658824 0 0 0 0 0.862745 0 0 0 1 0"/>
<feBlend mode="normal" in2="effect2_dropShadow_1172_9" result="effect3_dropShadow_1172_9"/>
<feColorMatrix in="SourceAlpha" type="matrix" values="0 0 0 0 0 0 0 0 0 0 0 0 0 0 0 0 0 0 127 0" result="hardAlpha"/>
<feOffset/>
<feGaussianBlur stdDeviation="7.602"/>
<feColorMatrix type="matrix" values="0 0 0 0 0.454902 0 0 0 0 0.658824 0 0 0 0 0.862745 0 0 0 1 0"/>
<feBlend mode="normal" in2="effect3_dropShadow_1172_9" result="effect4_dropShadow_1172_9"/>
<feColorMatrix in="SourceAlpha" type="matrix" values="0 0 0 0 0 0 0 0 0 0 0 0 0 0 0 0 0 0 127 0" result="hardAlpha"/>
<feOffset/>
<feGaussianBlur stdDeviation="13.032"/>
<feColorMatrix type="matrix" values="0 0 0 0 0.454902 0 0 0 0 0.658824 0 0 0 0 0.862745 0 0 0 1 0"/>
<feBlend mode="normal" in2="effect4_dropShadow_1172_9" result="effect5_dropShadow_1172_9"/>
<feColorMatrix in="SourceAlpha" type="matrix" values="0 0 0 0 0 0 0 0 0 0 0 0 0 0 0 0 0 0 127 0" result="hardAlpha"/>
<feOffset/>
<feGaussianBlur stdDeviation="22.806"/>
<feColorMatrix type="matrix" values="0 0 0 0 0.454902 0 0 0 0 0.658824 0 0 0 0 0.862745 0 0 0 1 0"/>
<feBlend mode="normal" in2="effect5_dropShadow_1172_9" result="effect6_dropShadow_1172_9"/>
<feBlend mode="normal" in="SourceGraphic" in2="effect6_dropShadow_1172_9" result="shape"/>
</filter>
<filter id="filter3_dddddd_1172_9" x="442.538" y="56.586" width="266.415" height="272.398" filterUnits="userSpaceOnUse" color-interpolation-filters="sRGB">
<feFlood flood-opacity="0" result="BackgroundImageFix"/>
<feColorMatrix in="SourceAlpha" type="matrix" values="0 0 0 0 0 0 0 0 0 0 0 0 0 0 0 0 0 0 127 0" result="hardAlpha"/>
<feOffset/>
<feGaussianBlur stdDeviation="0.543"/>
<feColorMatrix type="matrix" values="0 0 0 0 0.878431 0 0 0 0 0.4 0 0 0 0 0.4 0 0 0 1 0"/>
<feBlend mode="normal" in2="BackgroundImageFix" result="effect1_dropShadow_1172_9"/>
<feColorMatrix in="SourceAlpha" type="matrix" values="0 0 0 0 0 0 0 0 0 0 0 0 0 0 0 0 0 0 127 0" result="hardAlpha"/>
<feOffset/>
<feGaussianBlur stdDeviation="1.086"/>
<feColorMatrix type="matrix" values="0 0 0 0 0.878431 0 0 0 0 0.4 0 0 0 0 0.4 0 0 0 1 0"/>
<feBlend mode="normal" in2="effect1_dropShadow_1172_9" result="effect2_dropShadow_1172_9"/>
<feColorMatrix in="SourceAlpha" type="matrix" values="0 0 0 0 0 0 0 0 0 0 0 0 0 0 0 0 0 0 127 0" result="hardAlpha"/>
<feOffset/>
<feGaussianBlur stdDeviation="3.801"/>
<feColorMatrix type="matrix" values="0 0 0 0 0.878431 0 0 0 0 0.4 0 0 0 0 0.4 0 0 0 1 0"/>
<feBlend mode="normal" in2="effect2_dropShadow_1172_9" result="effect3_dropShadow_1172_9"/>
<feColorMatrix in="SourceAlpha" type="matrix" values="0 0 0 0 0 0 0 0 0 0 0 0 0 0 0 0 0 0 127 0" result="hardAlpha"/>
<feOffset/>
<feGaussianBlur stdDeviation="7.602"/>
<feColorMatrix type="matrix" values="0 0 0 0 0.878431 0 0 0 0 0.4 0 0 0 0 0.4 0 0 0 1 0"/>
<feBlend mode="normal" in2="effect3_dropShadow_1172_9" result="effect4_dropShadow_1172_9"/>
<feColorMatrix in="SourceAlpha" type="matrix" values="0 0 0 0 0 0 0 0 0 0 0 0 0 0 0 0 0 0 127 0" result="hardAlpha"/>
<feOffset/>
<feGaussianBlur stdDeviation="13.032"/>
<feColorMatrix type="matrix" values="0 0 0 0 0.878431 0 0 0 0 0.4 0 0 0 0 0.4 0 0 0 1 0"/>
<feBlend mode="normal" in2="effect4_dropShadow_1172_9" result="effect5_dropShadow_1172_9"/>
<feColorMatrix in="SourceAlpha" type="matrix" values="0 0 0 0 0 0 0 0 0 0 0 0 0 0 0 0 0 0 127 0" result="hardAlpha"/>
<feOffset/>
<feGaussianBlur stdDeviation="22.806"/>
<feColorMatrix type="matrix" values="0 0 0 0 0.878431 0 0 0 0 0.4 0 0 0 0 0.4 0 0 0 1 0"/>
<feBlend mode="normal" in2="effect5_dropShadow_1172_9" result="effect6_dropShadow_1172_9"/>
<feBlend mode="normal" in="SourceGraphic" in2="effect6_dropShadow_1172_9" result="shape"/>
</filter>
<filter id="filter4_dddddd_1172_9" x="10.5521" y="56.586" width="266.415" height="272.398" filterUnits="userSpaceOnUse" color-interpolation-filters="sRGB">
<feFlood flood-opacity="0" result="BackgroundImageFix"/>
<feColorMatrix in="SourceAlpha" type="matrix" values="0 0 0 0 0 0 0 0 0 0 0 0 0 0 0 0 0 0 127 0" result="hardAlpha"/>
<feOffset/>
<feGaussianBlur stdDeviation="0.543"/>
<feColorMatrix type="matrix" values="0 0 0 0 0.415686 0 0 0 0 0.658824 0 0 0 0 0.309804 0 0 0 1 0"/>
<feBlend mode="normal" in2="BackgroundImageFix" result="effect1_dropShadow_1172_9"/>
<feColorMatrix in="SourceAlpha" type="matrix" values="0 0 0 0 0 0 0 0 0 0 0 0 0 0 0 0 0 0 127 0" result="hardAlpha"/>
<feOffset/>
<feGaussianBlur stdDeviation="1.086"/>
<feColorMatrix type="matrix" values="0 0 0 0 0.415686 0 0 0 0 0.658824 0 0 0 0 0.309804 0 0 0 1 0"/>
<feBlend mode="normal" in2="effect1_dropShadow_1172_9" result="effect2_dropShadow_1172_9"/>
<feColorMatrix in="SourceAlpha" type="matrix" values="0 0 0 0 0 0 0 0 0 0 0 0 0 0 0 0 0 0 127 0" result="hardAlpha"/>
<feOffset/>
<feGaussianBlur stdDeviation="3.801"/>
<feColorMatrix type="matrix" values="0 0 0 0 0.415686 0 0 0 0 0.658824 0 0 0 0 0.309804 0 0 0 1 0"/>
<feBlend mode="normal" in2="effect2_dropShadow_1172_9" result="effect3_dropShadow_1172_9"/>
<feColorMatrix in="SourceAlpha" type="matrix" values="0 0 0 0 0 0 0 0 0 0 0 0 0 0 0 0 0 0 127 0" result="hardAlpha"/>
<feOffset/>
<feGaussianBlur stdDeviation="7.602"/>
<feColorMatrix type="matrix" values="0 0 0 0 0.415686 0 0 0 0 0.658824 0 0 0 0 0.309804 0 0 0 1 0"/>
<feBlend mode="normal" in2="effect3_dropShadow_1172_9" result="effect4_dropShadow_1172_9"/>
<feColorMatrix in="SourceAlpha" type="matrix" values="0 0 0 0 0 0 0 0 0 0 0 0 0 0 0 0 0 0 127 0" result="hardAlpha"/>
<feOffset/>
<feGaussianBlur stdDeviation="13.032"/>
<feColorMatrix type="matrix" values="0 0 0 0 0.415686 0 0 0 0 0.658824 0 0 0 0 0.309804 0 0 0 1 0"/>
<feBlend mode="normal" in2="effect4_dropShadow_1172_9" result="effect5_dropShadow_1172_9"/>
<feColorMatrix in="SourceAlpha" type="matrix" values="0 0 0 0 0 0 0 0 0 0 0 0 0 0 0 0 0 0 127 0" result="hardAlpha"/>
<feOffset/>
<feGaussianBlur stdDeviation="22.806"/>
<feColorMatrix type="matrix" values="0 0 0 0 0.415686 0 0 0 0 0.658824 0 0 0 0 0.309804 0 0 0 1 0"/>
<feBlend mode="normal" in2="effect5_dropShadow_1172_9" result="effect6_dropShadow_1172_9"/>
<feBlend mode="normal" in="SourceGraphic" in2="effect6_dropShadow_1172_9" result="shape"/>
</filter>
<filter id="filter5_dddddd_1172_9" x="0.00112152" y="-9.91821e-05" width="698.164" height="382.496" filterUnits="userSpaceOnUse" color-interpolation-filters="sRGB">
<feFlood flood-opacity="0" result="BackgroundImageFix"/>
<feColorMatrix in="SourceAlpha" type="matrix" values="0 0 0 0 0 0 0 0 0 0 0 0 0 0 0 0 0 0 127 0" result="hardAlpha"/>
<feOffset/>
<feGaussianBlur stdDeviation="1.428"/>
<feColorMatrix type="matrix" values="0 0 0 0 1 0 0 0 0 1 0 0 0 0 1 0 0 0 1 0"/>
<feBlend mode="normal" in2="BackgroundImageFix" result="effect1_dropShadow_1172_9"/>
<feColorMatrix in="SourceAlpha" type="matrix" values="0 0 0 0 0 0 0 0 0 0 0 0 0 0 0 0 0 0 127 0" result="hardAlpha"/>
<feOffset/>
<feGaussianBlur stdDeviation="2.856"/>
<feColorMatrix type="matrix" values="0 0 0 0 1 0 0 0 0 1 0 0 0 0 1 0 0 0 1 0"/>
<feBlend mode="normal" in2="effect1_dropShadow_1172_9" result="effect2_dropShadow_1172_9"/>
<feColorMatrix in="SourceAlpha" type="matrix" values="0 0 0 0 0 0 0 0 0 0 0 0 0 0 0 0 0 0 127 0" result="hardAlpha"/>
<feOffset/>
<feGaussianBlur stdDeviation="9.996"/>
<feColorMatrix type="matrix" values="0 0 0 0 1 0 0 0 0 1 0 0 0 0 1 0 0 0 1 0"/>
<feBlend mode="normal" in2="effect2_dropShadow_1172_9" result="effect3_dropShadow_1172_9"/>
<feColorMatrix in="SourceAlpha" type="matrix" values="0 0 0 0 0 0 0 0 0 0 0 0 0 0 0 0 0 0 127 0" result="hardAlpha"/>
<feOffset/>
<feGaussianBlur stdDeviation="19.992"/>
<feColorMatrix type="matrix" values="0 0 0 0 1 0 0 0 0 1 0 0 0 0 1 0 0 0 1 0"/>
<feBlend mode="normal" in2="effect3_dropShadow_1172_9" result="effect4_dropShadow_1172_9"/>
<feColorMatrix in="SourceAlpha" type="matrix" values="0 0 0 0 0 0 0 0 0 0 0 0 0 0 0 0 0 0 127 0" result="hardAlpha"/>
<feOffset/>
<feGaussianBlur stdDeviation="34.272"/>
<feColorMatrix type="matrix" values="0 0 0 0 1 0 0 0 0 1 0 0 0 0 1 0 0 0 1 0"/>
<feBlend mode="normal" in2="effect4_dropShadow_1172_9" result="effect5_dropShadow_1172_9"/>
<feColorMatrix in="SourceAlpha" type="matrix" values="0 0 0 0 0 0 0 0 0 0 0 0 0 0 0 0 0 0 127 0" result="hardAlpha"/>
<feOffset/>
<feGaussianBlur stdDeviation="59.976"/>
<feColorMatrix type="matrix" values="0 0 0 0 1 0 0 0 0 1 0 0 0 0 1 0 0 0 1 0"/>
<feBlend mode="normal" in2="effect5_dropShadow_1172_9" result="effect6_dropShadow_1172_9"/>
<feBlend mode="normal" in="SourceGraphic" in2="effect6_dropShadow_1172_9" result="shape"/>
</filter>
</defs>
</svg>
