<svg width="608" height="330" viewBox="0 0 608 330" fill="none" xmlns="http://www.w3.org/2000/svg">
<g filter="url(#filter0_dddddd_1173_43)">
<rect x="215.986" y="90.7915" width="175" height="181" rx="58" transform="rotate(-0.169103 215.986 90.7915)" fill="#74A8DC"/>
</g>
<g filter="url(#filter1_dddddd_1173_43)">
<rect x="431.986" y="89.7915" width="175" height="181" rx="58" transform="rotate(-0.169103 431.986 89.7915)" fill="#E06666"/>
</g>
<g filter="url(#filter2_dddddd_1173_43)">
<rect y="89.7915" width="175" height="181" rx="58" transform="rotate(-0.169103 0 89.7915)" fill="#6AA84F"/>
</g>
<g filter="url(#filter3_dddddd_1173_43)">
<path d="M179.552 242.32C166.24 248.635 157.067 251.792 152.032 251.792C148.875 251.792 144.011 248.421 137.44 241.68C130.955 235.024 123.573 226.875 115.296 217.232C109.579 219.451 104.117 220.56 98.912 220.56C89.8667 220.56 81.8453 218.427 74.848 214.16C67.936 209.808 62.56 203.792 58.72 196.112C54.88 188.432 52.96 179.728 52.96 170C52.96 160.016 55.8613 150.8 61.664 142.352C67.4667 133.819 74.6773 127.12 83.296 122.256C91.9147 117.307 100.149 114.832 108 114.832C117.045 114.832 125.024 117.008 131.936 121.36C138.933 125.712 144.352 131.728 148.192 139.408C152.032 147.088 153.952 155.792 153.952 165.52C153.952 175.333 151.136 184.421 145.504 192.784C139.872 201.147 132.747 207.845 124.128 212.88C132.149 218.939 139.659 224.4 146.656 229.264C153.739 234.128 158.048 236.56 159.584 236.56H176.864L179.552 242.32ZM70.368 163.856C70.368 172.219 71.6907 179.899 74.336 186.896C76.9813 193.808 80.992 199.355 86.368 203.536C91.8293 207.717 98.528 209.808 106.464 209.808C112.096 209.808 117.216 208.187 121.824 204.944C126.517 201.616 130.187 197.051 132.832 191.248C135.477 185.36 136.8 178.789 136.8 171.536C136.8 163.088 135.477 155.408 132.832 148.496C130.187 141.499 126.176 135.952 120.8 131.856C115.424 127.675 108.725 125.584 100.704 125.584C95.072 125.584 89.9093 127.248 85.216 130.576C80.608 133.819 76.9813 138.384 74.336 144.272C71.6907 150.075 70.368 156.603 70.368 163.856ZM205.627 218H169.915V214.032L181.307 205.072V167.696L169.915 159.76V155.792L191.803 147.6H196.667V208.4L208.187 212.88L205.627 218ZM188.475 109.2C191.035 109.2 193.126 110.139 194.747 112.016C196.454 113.893 197.307 116.24 197.307 119.056C197.307 121.019 196.71 122.896 195.515 124.688C194.32 126.395 192.827 127.76 191.035 128.784C189.243 129.808 187.494 130.32 185.787 130.32C183.227 130.32 181.094 129.381 179.387 127.504C177.766 125.627 176.955 123.28 176.955 120.464C176.955 118.501 177.552 116.667 178.747 114.96C179.942 113.168 181.435 111.76 183.227 110.736C185.019 109.712 186.768 109.2 188.475 109.2ZM287.249 154L254.865 218L228.241 251.792L223.377 247.952C228.241 242.747 231.91 238.181 234.385 234.256C236.945 230.331 238.737 226.363 239.761 222.352C240.785 218.427 241.297 213.733 241.297 208.272L225.169 169.232L213.265 162.32V158.352L235.153 147.6L240.017 166.928L255.633 205.072L273.681 167.568L256.657 155.152L259.217 150.032H287.249V154ZM363.228 218H338.908V206.864L324.444 218.256C322.737 218.939 320.604 219.28 318.044 219.28C310.705 219.28 305.372 217.445 302.044 213.776C298.801 210.107 297.18 205.712 297.18 200.592C297.18 197.52 298.289 194.491 300.508 191.504C302.727 188.517 305.884 185.701 309.98 183.056H338.908V174.864C338.908 169.317 337.415 165.392 334.428 163.088C331.527 160.784 327.516 159.632 322.396 159.632C317.105 159.632 310.62 162.832 302.94 169.232L299.1 164.368L317.532 149.776C320.945 149.093 325.041 148.752 329.82 148.752C337.585 148.752 343.601 150.672 347.868 154.512C352.135 158.267 354.268 163.771 354.268 171.024V208.4L365.788 212.88L363.228 218ZM322.14 208.4C327.345 208.4 332.935 206.011 338.908 201.232V188.304H316.252C315.143 189.669 314.332 191.035 313.82 192.4C313.393 193.765 313.18 195.259 313.18 196.88C313.18 200.037 313.991 202.768 315.612 205.072C317.233 207.291 319.409 208.4 322.14 208.4ZM442.728 218H418.408V206.864L403.944 218.256C402.237 218.939 400.104 219.28 397.544 219.28C390.205 219.28 384.872 217.445 381.544 213.776C378.301 210.107 376.68 205.712 376.68 200.592C376.68 197.52 377.789 194.491 380.008 191.504C382.227 188.517 385.384 185.701 389.48 183.056H418.408V174.864C418.408 169.317 416.915 165.392 413.928 163.088C411.027 160.784 407.016 159.632 401.896 159.632C396.605 159.632 390.12 162.832 382.44 169.232L378.6 164.368L397.032 149.776C400.445 149.093 404.541 148.752 409.32 148.752C417.085 148.752 423.101 150.672 427.368 154.512C431.635 158.267 433.768 163.771 433.768 171.024V208.4L445.288 212.88L442.728 218ZM401.64 208.4C406.845 208.4 412.435 206.011 418.408 201.232V188.304H395.752C394.643 189.669 393.832 191.035 393.32 192.4C392.893 193.765 392.68 195.259 392.68 196.88C392.68 200.037 393.491 202.768 395.112 205.072C396.733 207.291 398.909 208.4 401.64 208.4ZM496.756 204.176C496.756 201.787 495.433 199.611 492.788 197.648C490.143 195.6 486.089 193.168 480.628 190.352C476.191 188.048 472.607 186.043 469.876 184.336C467.145 182.629 464.799 180.667 462.836 178.448C460.959 176.144 460.02 173.669 460.02 171.024C460.02 167.952 461.3 164.667 463.86 161.168C466.42 157.669 469.577 154.725 473.332 152.336C477.087 149.947 480.585 148.752 483.828 148.752C487.753 148.752 492.276 149.264 497.396 150.288C502.601 151.227 506.356 152.293 508.66 153.488V173.2H503.796C501.065 167.909 497.908 163.813 494.324 160.912C490.74 157.925 487.071 156.432 483.316 156.432C480.671 156.432 478.537 157.157 476.916 158.608C475.295 159.973 474.484 161.723 474.484 163.856C474.484 166.501 475.849 168.891 478.58 171.024C481.396 173.072 485.62 175.504 491.252 178.32C495.604 180.539 499.103 182.459 501.748 184.08C504.393 185.701 506.612 187.621 508.404 189.84C510.281 191.973 511.22 194.363 511.22 197.008C511.22 200.165 509.855 203.493 507.124 206.992C504.479 210.405 501.193 213.307 497.268 215.696C493.428 218.085 489.887 219.28 486.644 219.28C482.463 219.28 477.471 218.811 471.668 217.872C465.951 216.848 461.855 215.739 459.38 214.544V194.832H464.244C467.231 200.123 470.772 204.261 474.868 207.248C478.964 210.149 483.103 211.6 487.284 211.6C490.1 211.6 492.361 210.875 494.068 209.424C495.86 207.973 496.756 206.224 496.756 204.176Z" fill="black"/>
</g>
<defs>
<filter id="filter0_dddddd_1173_43" x="216.158" y="90.446" width="175.191" height="181.174" filterUnits="userSpaceOnUse" color-interpolation-filters="sRGB">
<feFlood flood-opacity="0" result="BackgroundImageFix"/>
<feColorMatrix in="SourceAlpha" type="matrix" values="0 0 0 0 0 0 0 0 0 0 0 0 0 0 0 0 0 0 127 0" result="hardAlpha"/>
<feOffset/>
<feColorMatrix type="matrix" values="0 0 0 0 0.454902 0 0 0 0 0.658824 0 0 0 0 0.862745 0 0 0 1 0"/>
<feBlend mode="normal" in2="BackgroundImageFix" result="effect1_dropShadow_1173_43"/>
<feColorMatrix in="SourceAlpha" type="matrix" values="0 0 0 0 0 0 0 0 0 0 0 0 0 0 0 0 0 0 127 0" result="hardAlpha"/>
<feOffset/>
<feColorMatrix type="matrix" values="0 0 0 0 0.454902 0 0 0 0 0.658824 0 0 0 0 0.862745 0 0 0 1 0"/>
<feBlend mode="normal" in2="effect1_dropShadow_1173_43" result="effect2_dropShadow_1173_43"/>
<feColorMatrix in="SourceAlpha" type="matrix" values="0 0 0 0 0 0 0 0 0 0 0 0 0 0 0 0 0 0 127 0" result="hardAlpha"/>
<feOffset/>
<feColorMatrix type="matrix" values="0 0 0 0 0.454902 0 0 0 0 0.658824 0 0 0 0 0.862745 0 0 0 1 0"/>
<feBlend mode="normal" in2="effect2_dropShadow_1173_43" result="effect3_dropShadow_1173_43"/>
<feColorMatrix in="SourceAlpha" type="matrix" values="0 0 0 0 0 0 0 0 0 0 0 0 0 0 0 0 0 0 127 0" result="hardAlpha"/>
<feOffset/>
<feColorMatrix type="matrix" values="0 0 0 0 0.454902 0 0 0 0 0.658824 0 0 0 0 0.862745 0 0 0 1 0"/>
<feBlend mode="normal" in2="effect3_dropShadow_1173_43" result="effect4_dropShadow_1173_43"/>
<feColorMatrix in="SourceAlpha" type="matrix" values="0 0 0 0 0 0 0 0 0 0 0 0 0 0 0 0 0 0 127 0" result="hardAlpha"/>
<feOffset/>
<feColorMatrix type="matrix" values="0 0 0 0 0.454902 0 0 0 0 0.658824 0 0 0 0 0.862745 0 0 0 1 0"/>
<feBlend mode="normal" in2="effect4_dropShadow_1173_43" result="effect5_dropShadow_1173_43"/>
<feColorMatrix in="SourceAlpha" type="matrix" values="0 0 0 0 0 0 0 0 0 0 0 0 0 0 0 0 0 0 127 0" result="hardAlpha"/>
<feOffset/>
<feColorMatrix type="matrix" values="0 0 0 0 0.454902 0 0 0 0 0.658824 0 0 0 0 0.862745 0 0 0 1 0"/>
<feBlend mode="normal" in2="effect5_dropShadow_1173_43" result="effect6_dropShadow_1173_43"/>
<feBlend mode="normal" in="SourceGraphic" in2="effect6_dropShadow_1173_43" result="shape"/>
</filter>
<filter id="filter1_dddddd_1173_43" x="432.158" y="89.446" width="175.191" height="181.174" filterUnits="userSpaceOnUse" color-interpolation-filters="sRGB">
<feFlood flood-opacity="0" result="BackgroundImageFix"/>
<feColorMatrix in="SourceAlpha" type="matrix" values="0 0 0 0 0 0 0 0 0 0 0 0 0 0 0 0 0 0 127 0" result="hardAlpha"/>
<feOffset/>
<feColorMatrix type="matrix" values="0 0 0 0 0.878431 0 0 0 0 0.4 0 0 0 0 0.4 0 0 0 1 0"/>
<feBlend mode="normal" in2="BackgroundImageFix" result="effect1_dropShadow_1173_43"/>
<feColorMatrix in="SourceAlpha" type="matrix" values="0 0 0 0 0 0 0 0 0 0 0 0 0 0 0 0 0 0 127 0" result="hardAlpha"/>
<feOffset/>
<feColorMatrix type="matrix" values="0 0 0 0 0.878431 0 0 0 0 0.4 0 0 0 0 0.4 0 0 0 1 0"/>
<feBlend mode="normal" in2="effect1_dropShadow_1173_43" result="effect2_dropShadow_1173_43"/>
<feColorMatrix in="SourceAlpha" type="matrix" values="0 0 0 0 0 0 0 0 0 0 0 0 0 0 0 0 0 0 127 0" result="hardAlpha"/>
<feOffset/>
<feColorMatrix type="matrix" values="0 0 0 0 0.878431 0 0 0 0 0.4 0 0 0 0 0.4 0 0 0 1 0"/>
<feBlend mode="normal" in2="effect2_dropShadow_1173_43" result="effect3_dropShadow_1173_43"/>
<feColorMatrix in="SourceAlpha" type="matrix" values="0 0 0 0 0 0 0 0 0 0 0 0 0 0 0 0 0 0 127 0" result="hardAlpha"/>
<feOffset/>
<feColorMatrix type="matrix" values="0 0 0 0 0.878431 0 0 0 0 0.4 0 0 0 0 0.4 0 0 0 1 0"/>
<feBlend mode="normal" in2="effect3_dropShadow_1173_43" result="effect4_dropShadow_1173_43"/>
<feColorMatrix in="SourceAlpha" type="matrix" values="0 0 0 0 0 0 0 0 0 0 0 0 0 0 0 0 0 0 127 0" result="hardAlpha"/>
<feOffset/>
<feColorMatrix type="matrix" values="0 0 0 0 0.878431 0 0 0 0 0.4 0 0 0 0 0.4 0 0 0 1 0"/>
<feBlend mode="normal" in2="effect4_dropShadow_1173_43" result="effect5_dropShadow_1173_43"/>
<feColorMatrix in="SourceAlpha" type="matrix" values="0 0 0 0 0 0 0 0 0 0 0 0 0 0 0 0 0 0 127 0" result="hardAlpha"/>
<feOffset/>
<feColorMatrix type="matrix" values="0 0 0 0 0.878431 0 0 0 0 0.4 0 0 0 0 0.4 0 0 0 1 0"/>
<feBlend mode="normal" in2="effect5_dropShadow_1173_43" result="effect6_dropShadow_1173_43"/>
<feBlend mode="normal" in="SourceGraphic" in2="effect6_dropShadow_1173_43" result="shape"/>
</filter>
<filter id="filter2_dddddd_1173_43" x="0.171875" y="89.446" width="175.191" height="181.174" filterUnits="userSpaceOnUse" color-interpolation-filters="sRGB">
<feFlood flood-opacity="0" result="BackgroundImageFix"/>
<feColorMatrix in="SourceAlpha" type="matrix" values="0 0 0 0 0 0 0 0 0 0 0 0 0 0 0 0 0 0 127 0" result="hardAlpha"/>
<feOffset/>
<feColorMatrix type="matrix" values="0 0 0 0 0.415686 0 0 0 0 0.658824 0 0 0 0 0.309804 0 0 0 1 0"/>
<feBlend mode="normal" in2="BackgroundImageFix" result="effect1_dropShadow_1173_43"/>
<feColorMatrix in="SourceAlpha" type="matrix" values="0 0 0 0 0 0 0 0 0 0 0 0 0 0 0 0 0 0 127 0" result="hardAlpha"/>
<feOffset/>
<feColorMatrix type="matrix" values="0 0 0 0 0.415686 0 0 0 0 0.658824 0 0 0 0 0.309804 0 0 0 1 0"/>
<feBlend mode="normal" in2="effect1_dropShadow_1173_43" result="effect2_dropShadow_1173_43"/>
<feColorMatrix in="SourceAlpha" type="matrix" values="0 0 0 0 0 0 0 0 0 0 0 0 0 0 0 0 0 0 127 0" result="hardAlpha"/>
<feOffset/>
<feColorMatrix type="matrix" values="0 0 0 0 0.415686 0 0 0 0 0.658824 0 0 0 0 0.309804 0 0 0 1 0"/>
<feBlend mode="normal" in2="effect2_dropShadow_1173_43" result="effect3_dropShadow_1173_43"/>
<feColorMatrix in="SourceAlpha" type="matrix" values="0 0 0 0 0 0 0 0 0 0 0 0 0 0 0 0 0 0 127 0" result="hardAlpha"/>
<feOffset/>
<feColorMatrix type="matrix" values="0 0 0 0 0.415686 0 0 0 0 0.658824 0 0 0 0 0.309804 0 0 0 1 0"/>
<feBlend mode="normal" in2="effect3_dropShadow_1173_43" result="effect4_dropShadow_1173_43"/>
<feColorMatrix in="SourceAlpha" type="matrix" values="0 0 0 0 0 0 0 0 0 0 0 0 0 0 0 0 0 0 127 0" result="hardAlpha"/>
<feOffset/>
<feColorMatrix type="matrix" values="0 0 0 0 0.415686 0 0 0 0 0.658824 0 0 0 0 0.309804 0 0 0 1 0"/>
<feBlend mode="normal" in2="effect4_dropShadow_1173_43" result="effect5_dropShadow_1173_43"/>
<feColorMatrix in="SourceAlpha" type="matrix" values="0 0 0 0 0 0 0 0 0 0 0 0 0 0 0 0 0 0 127 0" result="hardAlpha"/>
<feOffset/>
<feColorMatrix type="matrix" values="0 0 0 0 0.415686 0 0 0 0 0.658824 0 0 0 0 0.309804 0 0 0 1 0"/>
<feBlend mode="normal" in2="effect5_dropShadow_1173_43" result="effect6_dropShadow_1173_43"/>
<feBlend mode="normal" in="SourceGraphic" in2="effect6_dropShadow_1173_43" result="shape"/>
</filter>
<filter id="filter3_dddddd_1173_43" x="52.9609" y="109.2" width="458.26" height="142.592" filterUnits="userSpaceOnUse" color-interpolation-filters="sRGB">
<feFlood flood-opacity="0" result="BackgroundImageFix"/>
<feColorMatrix in="SourceAlpha" type="matrix" values="0 0 0 0 0 0 0 0 0 0 0 0 0 0 0 0 0 0 127 0" result="hardAlpha"/>
<feOffset/>
<feColorMatrix type="matrix" values="0 0 0 0 1 0 0 0 0 1 0 0 0 0 1 0 0 0 1 0"/>
<feBlend mode="normal" in2="BackgroundImageFix" result="effect1_dropShadow_1173_43"/>
<feColorMatrix in="SourceAlpha" type="matrix" values="0 0 0 0 0 0 0 0 0 0 0 0 0 0 0 0 0 0 127 0" result="hardAlpha"/>
<feOffset/>
<feColorMatrix type="matrix" values="0 0 0 0 1 0 0 0 0 1 0 0 0 0 1 0 0 0 1 0"/>
<feBlend mode="normal" in2="effect1_dropShadow_1173_43" result="effect2_dropShadow_1173_43"/>
<feColorMatrix in="SourceAlpha" type="matrix" values="0 0 0 0 0 0 0 0 0 0 0 0 0 0 0 0 0 0 127 0" result="hardAlpha"/>
<feOffset/>
<feColorMatrix type="matrix" values="0 0 0 0 1 0 0 0 0 1 0 0 0 0 1 0 0 0 1 0"/>
<feBlend mode="normal" in2="effect2_dropShadow_1173_43" result="effect3_dropShadow_1173_43"/>
<feColorMatrix in="SourceAlpha" type="matrix" values="0 0 0 0 0 0 0 0 0 0 0 0 0 0 0 0 0 0 127 0" result="hardAlpha"/>
<feOffset/>
<feColorMatrix type="matrix" values="0 0 0 0 1 0 0 0 0 1 0 0 0 0 1 0 0 0 1 0"/>
<feBlend mode="normal" in2="effect3_dropShadow_1173_43" result="effect4_dropShadow_1173_43"/>
<feColorMatrix in="SourceAlpha" type="matrix" values="0 0 0 0 0 0 0 0 0 0 0 0 0 0 0 0 0 0 127 0" result="hardAlpha"/>
<feOffset/>
<feColorMatrix type="matrix" values="0 0 0 0 1 0 0 0 0 1 0 0 0 0 1 0 0 0 1 0"/>
<feBlend mode="normal" in2="effect4_dropShadow_1173_43" result="effect5_dropShadow_1173_43"/>
<feColorMatrix in="SourceAlpha" type="matrix" values="0 0 0 0 0 0 0 0 0 0 0 0 0 0 0 0 0 0 127 0" result="hardAlpha"/>
<feOffset/>
<feColorMatrix type="matrix" values="0 0 0 0 1 0 0 0 0 1 0 0 0 0 1 0 0 0 1 0"/>
<feBlend mode="normal" in2="effect5_dropShadow_1173_43" result="effect6_dropShadow_1173_43"/>
<feBlend mode="normal" in="SourceGraphic" in2="effect6_dropShadow_1173_43" result="shape"/>
</filter>
</defs>
</svg>
