<svg width="752" height="513" viewBox="0 0 752 513" fill="none" xmlns="http://www.w3.org/2000/svg">
<g opacity="0.77" filter="url(#filter0_dddddd_1316_44)">
<ellipse cx="368.215" cy="243.664" rx="93.8086" ry="93.5185" fill="#74A8DC"/>
</g>
<g opacity="0.77" filter="url(#filter1_dddddd_1316_44)">
<ellipse cx="235.647" cy="248.664" rx="93.8086" ry="93.5185" fill="#6AA84F"/>
</g>
<g opacity="0.77" filter="url(#filter2_dddddd_1316_44)">
<ellipse cx="500.647" cy="248.664" rx="93.8086" ry="93.5185" fill="#E06666"/>
</g>
<g filter="url(#filter3_dddddd_1316_44)">
<path d="M300.502 302.386C290.518 307.122 283.638 309.49 279.862 309.49C277.494 309.49 273.846 306.962 268.918 301.906C264.054 296.914 258.518 290.802 252.31 283.57C248.022 285.234 243.926 286.066 240.022 286.066C233.238 286.066 227.222 284.466 221.974 281.266C216.79 278.002 212.758 273.49 209.878 267.73C206.998 261.97 205.558 255.442 205.558 248.146C205.558 240.658 207.734 233.746 212.086 227.41C216.438 221.01 221.846 215.986 228.31 212.338C234.774 208.626 240.95 206.77 246.838 206.77C253.622 206.77 259.606 208.402 264.79 211.666C270.038 214.93 274.102 219.442 276.982 225.202C279.862 230.962 281.302 237.49 281.302 244.786C281.302 252.146 279.19 258.962 274.966 265.234C270.742 271.506 265.398 276.53 258.934 280.306C264.95 284.85 270.582 288.946 275.83 292.594C281.142 296.242 284.374 298.066 285.526 298.066H298.486L300.502 302.386ZM218.614 243.538C218.614 249.81 219.606 255.57 221.59 260.818C223.574 266.002 226.582 270.162 230.614 273.298C234.71 276.434 239.734 278.002 245.686 278.002C249.91 278.002 253.75 276.786 257.206 274.354C260.726 271.858 263.478 268.434 265.462 264.082C267.446 259.666 268.438 254.738 268.438 249.298C268.438 242.962 267.446 237.202 265.462 232.018C263.478 226.77 260.47 222.61 256.438 219.538C252.406 216.402 247.382 214.834 241.366 214.834C237.142 214.834 233.27 216.082 229.75 218.578C226.294 221.01 223.574 224.434 221.59 228.85C219.606 233.202 218.614 238.098 218.614 243.538ZM320.058 284.146H293.274V281.17L301.818 274.45V246.418L293.274 240.466V237.49L309.69 231.346H313.338V276.946L321.978 280.306L320.058 284.146ZM307.194 202.546C309.114 202.546 310.682 203.25 311.898 204.658C313.178 206.066 313.818 207.826 313.818 209.938C313.818 211.41 313.37 212.818 312.474 214.162C311.578 215.442 310.458 216.466 309.114 217.234C307.77 218.002 306.458 218.386 305.178 218.386C303.258 218.386 301.658 217.682 300.378 216.274C299.162 214.866 298.554 213.106 298.554 210.994C298.554 209.522 299.002 208.146 299.898 206.866C300.794 205.522 301.914 204.466 303.258 203.698C304.602 202.93 305.914 202.546 307.194 202.546ZM381.275 236.146L356.987 284.146L337.019 309.49L333.371 306.61C337.019 302.706 339.771 299.282 341.627 296.338C343.547 293.394 344.891 290.418 345.659 287.41C346.427 284.466 346.811 280.946 346.811 276.85L334.715 247.57L325.787 242.386V239.41L342.203 231.346L345.851 245.842L357.563 274.45L371.099 246.322L358.331 237.01L360.251 233.17H381.275V236.146ZM438.259 284.146H420.019V275.794L409.171 284.338C407.891 284.85 406.291 285.106 404.371 285.106C398.867 285.106 394.867 283.73 392.371 280.978C389.939 278.226 388.723 274.93 388.723 271.09C388.723 268.786 389.555 266.514 391.219 264.274C392.883 262.034 395.251 259.922 398.323 257.938H420.019V251.794C420.019 247.634 418.899 244.69 416.659 242.962C414.483 241.234 411.475 240.37 407.635 240.37C403.667 240.37 398.803 242.77 393.043 247.57L390.163 243.922L403.987 232.978C406.547 232.466 409.619 232.21 413.203 232.21C419.027 232.21 423.539 233.65 426.739 236.53C429.939 239.346 431.539 243.474 431.539 248.914V276.946L440.179 280.306L438.259 284.146ZM407.443 276.946C411.347 276.946 415.539 275.154 420.019 271.57V261.874H403.027C402.195 262.898 401.587 263.922 401.203 264.946C400.883 265.97 400.723 267.09 400.723 268.306C400.723 270.674 401.331 272.722 402.547 274.45C403.763 276.114 405.395 276.946 407.443 276.946ZM497.884 284.146H479.644V275.794L468.796 284.338C467.516 284.85 465.916 285.106 463.996 285.106C458.492 285.106 454.492 283.73 451.996 280.978C449.564 278.226 448.348 274.93 448.348 271.09C448.348 268.786 449.18 266.514 450.844 264.274C452.508 262.034 454.876 259.922 457.948 257.938H479.644V251.794C479.644 247.634 478.524 244.69 476.284 242.962C474.108 241.234 471.1 240.37 467.26 240.37C463.292 240.37 458.428 242.77 452.668 247.57L449.788 243.922L463.612 232.978C466.172 232.466 469.244 232.21 472.828 232.21C478.652 232.21 483.164 233.65 486.364 236.53C489.564 239.346 491.164 243.474 491.164 248.914V276.946L499.804 280.306L497.884 284.146ZM467.068 276.946C470.972 276.946 475.164 275.154 479.644 271.57V261.874H462.652C461.82 262.898 461.212 263.922 460.828 264.946C460.508 265.97 460.348 267.09 460.348 268.306C460.348 270.674 460.956 272.722 462.172 274.45C463.388 276.114 465.02 276.946 467.068 276.946ZM538.405 273.778C538.405 271.986 537.413 270.354 535.429 268.882C533.445 267.346 530.405 265.522 526.309 263.41C522.981 261.682 520.293 260.178 518.245 258.898C516.197 257.618 514.437 256.146 512.965 254.482C511.557 252.754 510.853 250.898 510.853 248.914C510.853 246.61 511.813 244.146 513.733 241.522C515.653 238.898 518.021 236.69 520.837 234.898C523.653 233.106 526.277 232.21 528.709 232.21C531.653 232.21 535.045 232.594 538.885 233.362C542.789 234.066 545.605 234.866 547.333 235.762V250.546H543.685C541.637 246.578 539.269 243.506 536.581 241.33C533.893 239.09 531.141 237.97 528.325 237.97C526.341 237.97 524.741 238.514 523.525 239.602C522.309 240.626 521.701 241.938 521.701 243.538C521.701 245.522 522.725 247.314 524.773 248.914C526.885 250.45 530.053 252.274 534.277 254.386C537.541 256.05 540.165 257.49 542.149 258.706C544.133 259.922 545.797 261.362 547.141 263.026C548.549 264.626 549.253 266.418 549.253 268.402C549.253 270.77 548.229 273.266 546.181 275.89C544.197 278.45 541.733 280.626 538.789 282.418C535.909 284.21 533.253 285.106 530.821 285.106C527.685 285.106 523.941 284.754 519.589 284.05C515.301 283.282 512.229 282.45 510.373 281.554V266.77H514.021C516.261 270.738 518.917 273.842 521.989 276.082C525.061 278.258 528.165 279.346 531.301 279.346C533.413 279.346 535.109 278.802 536.389 277.714C537.733 276.626 538.405 275.314 538.405 273.778Z" fill="white"/>
</g>
<defs>
<filter id="filter0_dddddd_1316_44" x="132.568" y="8.30685" width="471.294" height="470.714" filterUnits="userSpaceOnUse" color-interpolation-filters="sRGB">
<feFlood flood-opacity="0" result="BackgroundImageFix"/>
<feColorMatrix in="SourceAlpha" type="matrix" values="0 0 0 0 0 0 0 0 0 0 0 0 0 0 0 0 0 0 127 0" result="hardAlpha"/>
<feOffset/>
<feGaussianBlur stdDeviation="1.68856"/>
<feColorMatrix type="matrix" values="0 0 0 0 0.454902 0 0 0 0 0.658824 0 0 0 0 0.862745 0 0 0 1 0"/>
<feBlend mode="normal" in2="BackgroundImageFix" result="effect1_dropShadow_1316_44"/>
<feColorMatrix in="SourceAlpha" type="matrix" values="0 0 0 0 0 0 0 0 0 0 0 0 0 0 0 0 0 0 127 0" result="hardAlpha"/>
<feOffset/>
<feGaussianBlur stdDeviation="3.37711"/>
<feColorMatrix type="matrix" values="0 0 0 0 0.454902 0 0 0 0 0.658824 0 0 0 0 0.862745 0 0 0 1 0"/>
<feBlend mode="normal" in2="effect1_dropShadow_1316_44" result="effect2_dropShadow_1316_44"/>
<feColorMatrix in="SourceAlpha" type="matrix" values="0 0 0 0 0 0 0 0 0 0 0 0 0 0 0 0 0 0 127 0" result="hardAlpha"/>
<feOffset/>
<feGaussianBlur stdDeviation="11.8199"/>
<feColorMatrix type="matrix" values="0 0 0 0 0.454902 0 0 0 0 0.658824 0 0 0 0 0.862745 0 0 0 1 0"/>
<feBlend mode="normal" in2="effect2_dropShadow_1316_44" result="effect3_dropShadow_1316_44"/>
<feColorMatrix in="SourceAlpha" type="matrix" values="0 0 0 0 0 0 0 0 0 0 0 0 0 0 0 0 0 0 127 0" result="hardAlpha"/>
<feOffset/>
<feGaussianBlur stdDeviation="23.6398"/>
<feColorMatrix type="matrix" values="0 0 0 0 0.454902 0 0 0 0 0.658824 0 0 0 0 0.862745 0 0 0 1 0"/>
<feBlend mode="normal" in2="effect3_dropShadow_1316_44" result="effect4_dropShadow_1316_44"/>
<feColorMatrix in="SourceAlpha" type="matrix" values="0 0 0 0 0 0 0 0 0 0 0 0 0 0 0 0 0 0 127 0" result="hardAlpha"/>
<feOffset/>
<feGaussianBlur stdDeviation="40.5253"/>
<feColorMatrix type="matrix" values="0 0 0 0 0.454902 0 0 0 0 0.658824 0 0 0 0 0.862745 0 0 0 1 0"/>
<feBlend mode="normal" in2="effect4_dropShadow_1316_44" result="effect5_dropShadow_1316_44"/>
<feColorMatrix in="SourceAlpha" type="matrix" values="0 0 0 0 0 0 0 0 0 0 0 0 0 0 0 0 0 0 127 0" result="hardAlpha"/>
<feOffset/>
<feGaussianBlur stdDeviation="70.9193"/>
<feColorMatrix type="matrix" values="0 0 0 0 0.454902 0 0 0 0 0.658824 0 0 0 0 0.862745 0 0 0 1 0"/>
<feBlend mode="normal" in2="effect5_dropShadow_1316_44" result="effect6_dropShadow_1316_44"/>
<feBlend mode="normal" in="SourceGraphic" in2="effect6_dropShadow_1316_44" result="shape"/>
</filter>
<filter id="filter1_dddddd_1316_44" x="-0.000762939" y="13.3069" width="471.294" height="470.714" filterUnits="userSpaceOnUse" color-interpolation-filters="sRGB">
<feFlood flood-opacity="0" result="BackgroundImageFix"/>
<feColorMatrix in="SourceAlpha" type="matrix" values="0 0 0 0 0 0 0 0 0 0 0 0 0 0 0 0 0 0 127 0" result="hardAlpha"/>
<feOffset/>
<feGaussianBlur stdDeviation="1.68856"/>
<feColorMatrix type="matrix" values="0 0 0 0 0.415686 0 0 0 0 0.658824 0 0 0 0 0.309804 0 0 0 1 0"/>
<feBlend mode="normal" in2="BackgroundImageFix" result="effect1_dropShadow_1316_44"/>
<feColorMatrix in="SourceAlpha" type="matrix" values="0 0 0 0 0 0 0 0 0 0 0 0 0 0 0 0 0 0 127 0" result="hardAlpha"/>
<feOffset/>
<feGaussianBlur stdDeviation="3.37711"/>
<feColorMatrix type="matrix" values="0 0 0 0 0.415686 0 0 0 0 0.658824 0 0 0 0 0.309804 0 0 0 1 0"/>
<feBlend mode="normal" in2="effect1_dropShadow_1316_44" result="effect2_dropShadow_1316_44"/>
<feColorMatrix in="SourceAlpha" type="matrix" values="0 0 0 0 0 0 0 0 0 0 0 0 0 0 0 0 0 0 127 0" result="hardAlpha"/>
<feOffset/>
<feGaussianBlur stdDeviation="11.8199"/>
<feColorMatrix type="matrix" values="0 0 0 0 0.415686 0 0 0 0 0.658824 0 0 0 0 0.309804 0 0 0 1 0"/>
<feBlend mode="normal" in2="effect2_dropShadow_1316_44" result="effect3_dropShadow_1316_44"/>
<feColorMatrix in="SourceAlpha" type="matrix" values="0 0 0 0 0 0 0 0 0 0 0 0 0 0 0 0 0 0 127 0" result="hardAlpha"/>
<feOffset/>
<feGaussianBlur stdDeviation="23.6398"/>
<feColorMatrix type="matrix" values="0 0 0 0 0.415686 0 0 0 0 0.658824 0 0 0 0 0.309804 0 0 0 1 0"/>
<feBlend mode="normal" in2="effect3_dropShadow_1316_44" result="effect4_dropShadow_1316_44"/>
<feColorMatrix in="SourceAlpha" type="matrix" values="0 0 0 0 0 0 0 0 0 0 0 0 0 0 0 0 0 0 127 0" result="hardAlpha"/>
<feOffset/>
<feGaussianBlur stdDeviation="40.5253"/>
<feColorMatrix type="matrix" values="0 0 0 0 0.415686 0 0 0 0 0.658824 0 0 0 0 0.309804 0 0 0 1 0"/>
<feBlend mode="normal" in2="effect4_dropShadow_1316_44" result="effect5_dropShadow_1316_44"/>
<feColorMatrix in="SourceAlpha" type="matrix" values="0 0 0 0 0 0 0 0 0 0 0 0 0 0 0 0 0 0 127 0" result="hardAlpha"/>
<feOffset/>
<feGaussianBlur stdDeviation="70.9193"/>
<feColorMatrix type="matrix" values="0 0 0 0 0.415686 0 0 0 0 0.658824 0 0 0 0 0.309804 0 0 0 1 0"/>
<feBlend mode="normal" in2="effect5_dropShadow_1316_44" result="effect6_dropShadow_1316_44"/>
<feBlend mode="normal" in="SourceGraphic" in2="effect6_dropShadow_1316_44" result="shape"/>
</filter>
<filter id="filter2_dddddd_1316_44" x="264.999" y="13.3069" width="471.294" height="470.714" filterUnits="userSpaceOnUse" color-interpolation-filters="sRGB">
<feFlood flood-opacity="0" result="BackgroundImageFix"/>
<feColorMatrix in="SourceAlpha" type="matrix" values="0 0 0 0 0 0 0 0 0 0 0 0 0 0 0 0 0 0 127 0" result="hardAlpha"/>
<feOffset/>
<feGaussianBlur stdDeviation="1.68856"/>
<feColorMatrix type="matrix" values="0 0 0 0 0.878431 0 0 0 0 0.4 0 0 0 0 0.4 0 0 0 1 0"/>
<feBlend mode="normal" in2="BackgroundImageFix" result="effect1_dropShadow_1316_44"/>
<feColorMatrix in="SourceAlpha" type="matrix" values="0 0 0 0 0 0 0 0 0 0 0 0 0 0 0 0 0 0 127 0" result="hardAlpha"/>
<feOffset/>
<feGaussianBlur stdDeviation="3.37711"/>
<feColorMatrix type="matrix" values="0 0 0 0 0.878431 0 0 0 0 0.4 0 0 0 0 0.4 0 0 0 1 0"/>
<feBlend mode="normal" in2="effect1_dropShadow_1316_44" result="effect2_dropShadow_1316_44"/>
<feColorMatrix in="SourceAlpha" type="matrix" values="0 0 0 0 0 0 0 0 0 0 0 0 0 0 0 0 0 0 127 0" result="hardAlpha"/>
<feOffset/>
<feGaussianBlur stdDeviation="11.8199"/>
<feColorMatrix type="matrix" values="0 0 0 0 0.878431 0 0 0 0 0.4 0 0 0 0 0.4 0 0 0 1 0"/>
<feBlend mode="normal" in2="effect2_dropShadow_1316_44" result="effect3_dropShadow_1316_44"/>
<feColorMatrix in="SourceAlpha" type="matrix" values="0 0 0 0 0 0 0 0 0 0 0 0 0 0 0 0 0 0 127 0" result="hardAlpha"/>
<feOffset/>
<feGaussianBlur stdDeviation="23.6398"/>
<feColorMatrix type="matrix" values="0 0 0 0 0.878431 0 0 0 0 0.4 0 0 0 0 0.4 0 0 0 1 0"/>
<feBlend mode="normal" in2="effect3_dropShadow_1316_44" result="effect4_dropShadow_1316_44"/>
<feColorMatrix in="SourceAlpha" type="matrix" values="0 0 0 0 0 0 0 0 0 0 0 0 0 0 0 0 0 0 127 0" result="hardAlpha"/>
<feOffset/>
<feGaussianBlur stdDeviation="40.5253"/>
<feColorMatrix type="matrix" values="0 0 0 0 0.878431 0 0 0 0 0.4 0 0 0 0 0.4 0 0 0 1 0"/>
<feBlend mode="normal" in2="effect4_dropShadow_1316_44" result="effect5_dropShadow_1316_44"/>
<feColorMatrix in="SourceAlpha" type="matrix" values="0 0 0 0 0 0 0 0 0 0 0 0 0 0 0 0 0 0 127 0" result="hardAlpha"/>
<feOffset/>
<feGaussianBlur stdDeviation="70.9193"/>
<feColorMatrix type="matrix" values="0 0 0 0 0.878431 0 0 0 0 0.4 0 0 0 0 0.4 0 0 0 1 0"/>
<feBlend mode="normal" in2="effect5_dropShadow_1316_44" result="effect6_dropShadow_1316_44"/>
<feBlend mode="normal" in="SourceGraphic" in2="effect6_dropShadow_1316_44" result="shape"/>
</filter>
<filter id="filter3_dddddd_1316_44" x="3.013" y="-0.000183105" width="748.785" height="512.035" filterUnits="userSpaceOnUse" color-interpolation-filters="sRGB">
<feFlood flood-opacity="0" result="BackgroundImageFix"/>
<feColorMatrix in="SourceAlpha" type="matrix" values="0 0 0 0 0 0 0 0 0 0 0 0 0 0 0 0 0 0 127 0" result="hardAlpha"/>
<feOffset/>
<feGaussianBlur stdDeviation="2.41126"/>
<feColorMatrix type="matrix" values="0 0 0 0 1 0 0 0 0 1 0 0 0 0 1 0 0 0 1 0"/>
<feBlend mode="normal" in2="BackgroundImageFix" result="effect1_dropShadow_1316_44"/>
<feColorMatrix in="SourceAlpha" type="matrix" values="0 0 0 0 0 0 0 0 0 0 0 0 0 0 0 0 0 0 127 0" result="hardAlpha"/>
<feOffset/>
<feGaussianBlur stdDeviation="4.82251"/>
<feColorMatrix type="matrix" values="0 0 0 0 1 0 0 0 0 1 0 0 0 0 1 0 0 0 1 0"/>
<feBlend mode="normal" in2="effect1_dropShadow_1316_44" result="effect2_dropShadow_1316_44"/>
<feColorMatrix in="SourceAlpha" type="matrix" values="0 0 0 0 0 0 0 0 0 0 0 0 0 0 0 0 0 0 127 0" result="hardAlpha"/>
<feOffset/>
<feGaussianBlur stdDeviation="16.8788"/>
<feColorMatrix type="matrix" values="0 0 0 0 1 0 0 0 0 1 0 0 0 0 1 0 0 0 1 0"/>
<feBlend mode="normal" in2="effect2_dropShadow_1316_44" result="effect3_dropShadow_1316_44"/>
<feColorMatrix in="SourceAlpha" type="matrix" values="0 0 0 0 0 0 0 0 0 0 0 0 0 0 0 0 0 0 127 0" result="hardAlpha"/>
<feOffset/>
<feGaussianBlur stdDeviation="33.7576"/>
<feColorMatrix type="matrix" values="0 0 0 0 1 0 0 0 0 1 0 0 0 0 1 0 0 0 1 0"/>
<feBlend mode="normal" in2="effect3_dropShadow_1316_44" result="effect4_dropShadow_1316_44"/>
<feColorMatrix in="SourceAlpha" type="matrix" values="0 0 0 0 0 0 0 0 0 0 0 0 0 0 0 0 0 0 127 0" result="hardAlpha"/>
<feOffset/>
<feGaussianBlur stdDeviation="57.8702"/>
<feColorMatrix type="matrix" values="0 0 0 0 1 0 0 0 0 1 0 0 0 0 1 0 0 0 1 0"/>
<feBlend mode="normal" in2="effect4_dropShadow_1316_44" result="effect5_dropShadow_1316_44"/>
<feColorMatrix in="SourceAlpha" type="matrix" values="0 0 0 0 0 0 0 0 0 0 0 0 0 0 0 0 0 0 127 0" result="hardAlpha"/>
<feOffset/>
<feGaussianBlur stdDeviation="101.273"/>
<feColorMatrix type="matrix" values="0 0 0 0 1 0 0 0 0 1 0 0 0 0 1 0 0 0 1 0"/>
<feBlend mode="normal" in2="effect5_dropShadow_1316_44" result="effect6_dropShadow_1316_44"/>
<feBlend mode="normal" in="SourceGraphic" in2="effect6_dropShadow_1316_44" result="shape"/>
</filter>
</defs>
</svg>
