<svg width="459" height="248" viewBox="0 0 459 248" fill="none" xmlns="http://www.w3.org/2000/svg">
<ellipse opacity="0.77" cx="226.377" cy="131.519" rx="93.8086" ry="93.5185" fill="#898989"/>
<ellipse opacity="0.77" cx="93.8086" cy="136.519" rx="93.8086" ry="93.5185" fill="white"/>
<ellipse opacity="0.77" cx="364.809" cy="136.519" rx="93.8086" ry="93.5185" fill="white"/>
<g filter="url(#filter0_dddddd_1316_64)">
<path d="M158.664 182.24C148.68 186.976 141.8 189.344 138.024 189.344C135.656 189.344 132.008 186.816 127.08 181.76C122.216 176.768 116.68 170.656 110.472 163.424C106.184 165.088 102.088 165.92 98.184 165.92C91.4 165.92 85.384 164.32 80.136 161.12C74.952 157.856 70.92 153.344 68.04 147.584C65.16 141.824 63.72 135.296 63.72 128C63.72 120.512 65.896 113.6 70.248 107.264C74.6 100.864 80.008 95.84 86.472 92.192C92.936 88.48 99.112 86.624 105 86.624C111.784 86.624 117.768 88.256 122.952 91.52C128.2 94.784 132.264 99.296 135.144 105.056C138.024 110.816 139.464 117.344 139.464 124.64C139.464 132 137.352 138.816 133.128 145.088C128.904 151.36 123.56 156.384 117.096 160.16C123.112 164.704 128.744 168.8 133.992 172.448C139.304 176.096 142.536 177.92 143.688 177.92H156.648L158.664 182.24ZM76.776 123.392C76.776 129.664 77.768 135.424 79.752 140.672C81.736 145.856 84.744 150.016 88.776 153.152C92.872 156.288 97.896 157.856 103.848 157.856C108.072 157.856 111.912 156.64 115.368 154.208C118.888 151.712 121.64 148.288 123.624 143.936C125.608 139.52 126.6 134.592 126.6 129.152C126.6 122.816 125.608 117.056 123.624 111.872C121.64 106.624 118.632 102.464 114.6 99.392C110.568 96.256 105.544 94.688 99.528 94.688C95.304 94.688 91.432 95.936 87.912 98.432C84.456 100.864 81.736 104.288 79.752 108.704C77.768 113.056 76.776 117.952 76.776 123.392ZM178.22 164H151.436V161.024L159.98 154.304V126.272L151.436 120.32V117.344L167.852 111.2H171.5V156.8L180.14 160.16L178.22 164ZM165.356 82.4C167.276 82.4 168.844 83.104 170.06 84.512C171.34 85.92 171.98 87.68 171.98 89.792C171.98 91.264 171.532 92.672 170.636 94.016C169.74 95.296 168.62 96.32 167.276 97.088C165.932 97.856 164.62 98.24 163.34 98.24C161.42 98.24 159.82 97.536 158.54 96.128C157.324 94.72 156.716 92.96 156.716 90.848C156.716 89.376 157.164 88 158.06 86.72C158.956 85.376 160.076 84.32 161.42 83.552C162.764 82.784 164.076 82.4 165.356 82.4ZM239.437 116L215.149 164L195.181 189.344L191.533 186.464C195.181 182.56 197.933 179.136 199.789 176.192C201.709 173.248 203.053 170.272 203.821 167.264C204.589 164.32 204.973 160.8 204.973 156.704L192.877 127.424L183.949 122.24V119.264L200.365 111.2L204.013 125.696L215.725 154.304L229.261 126.176L216.493 116.864L218.413 113.024H239.437V116ZM296.421 164H278.181V155.648L267.333 164.192C266.053 164.704 264.453 164.96 262.533 164.96C257.029 164.96 253.029 163.584 250.533 160.832C248.101 158.08 246.885 154.784 246.885 150.944C246.885 148.64 247.717 146.368 249.381 144.128C251.045 141.888 253.413 139.776 256.485 137.792H278.181V131.648C278.181 127.488 277.061 124.544 274.821 122.816C272.645 121.088 269.637 120.224 265.797 120.224C261.829 120.224 256.965 122.624 251.205 127.424L248.325 123.776L262.149 112.832C264.709 112.32 267.781 112.064 271.365 112.064C277.189 112.064 281.701 113.504 284.901 116.384C288.101 119.2 289.701 123.328 289.701 128.768V156.8L298.341 160.16L296.421 164ZM265.605 156.8C269.509 156.8 273.701 155.008 278.181 151.424V141.728H261.189C260.357 142.752 259.749 143.776 259.365 144.8C259.045 145.824 258.885 146.944 258.885 148.16C258.885 150.528 259.493 152.576 260.709 154.304C261.925 155.968 263.557 156.8 265.605 156.8ZM356.046 164H337.806V155.648L326.958 164.192C325.678 164.704 324.078 164.96 322.158 164.96C316.654 164.96 312.654 163.584 310.158 160.832C307.726 158.08 306.51 154.784 306.51 150.944C306.51 148.64 307.342 146.368 309.006 144.128C310.67 141.888 313.038 139.776 316.11 137.792H337.806V131.648C337.806 127.488 336.686 124.544 334.446 122.816C332.27 121.088 329.262 120.224 325.422 120.224C321.454 120.224 316.59 122.624 310.83 127.424L307.95 123.776L321.774 112.832C324.334 112.32 327.406 112.064 330.99 112.064C336.814 112.064 341.326 113.504 344.526 116.384C347.726 119.2 349.326 123.328 349.326 128.768V156.8L357.966 160.16L356.046 164ZM325.23 156.8C329.134 156.8 333.326 155.008 337.806 151.424V141.728H320.814C319.982 142.752 319.374 143.776 318.99 144.8C318.67 145.824 318.51 146.944 318.51 148.16C318.51 150.528 319.118 152.576 320.334 154.304C321.55 155.968 323.182 156.8 325.23 156.8ZM396.567 153.632C396.567 151.84 395.575 150.208 393.591 148.736C391.607 147.2 388.567 145.376 384.471 143.264C381.143 141.536 378.455 140.032 376.407 138.752C374.359 137.472 372.599 136 371.127 134.336C369.719 132.608 369.015 130.752 369.015 128.768C369.015 126.464 369.975 124 371.895 121.376C373.815 118.752 376.183 116.544 378.999 114.752C381.815 112.96 384.439 112.064 386.871 112.064C389.815 112.064 393.207 112.448 397.047 113.216C400.951 113.92 403.767 114.72 405.495 115.616V130.4H401.847C399.799 126.432 397.431 123.36 394.743 121.184C392.055 118.944 389.303 117.824 386.487 117.824C384.503 117.824 382.903 118.368 381.687 119.456C380.471 120.48 379.863 121.792 379.863 123.392C379.863 125.376 380.887 127.168 382.935 128.768C385.047 130.304 388.215 132.128 392.439 134.24C395.703 135.904 398.327 137.344 400.311 138.56C402.295 139.776 403.959 141.216 405.303 142.88C406.711 144.48 407.415 146.272 407.415 148.256C407.415 150.624 406.391 153.12 404.343 155.744C402.359 158.304 399.895 160.48 396.951 162.272C394.071 164.064 391.415 164.96 388.983 164.96C385.847 164.96 382.103 164.608 377.751 163.904C373.463 163.136 370.391 162.304 368.535 161.408V146.624H372.183C374.423 150.592 377.079 153.696 380.151 155.936C383.223 158.112 386.327 159.2 389.463 159.2C391.575 159.2 393.271 158.656 394.551 157.568C395.895 156.48 396.567 155.168 396.567 153.632Z" fill="black"/>
</g>
<defs>
<filter id="filter0_dddddd_1316_64" x="63.7207" y="82.3999" width="343.693" height="106.944" filterUnits="userSpaceOnUse" color-interpolation-filters="sRGB">
<feFlood flood-opacity="0" result="BackgroundImageFix"/>
<feColorMatrix in="SourceAlpha" type="matrix" values="0 0 0 0 0 0 0 0 0 0 0 0 0 0 0 0 0 0 127 0" result="hardAlpha"/>
<feOffset/>
<feColorMatrix type="matrix" values="0 0 0 0 1 0 0 0 0 1 0 0 0 0 1 0 0 0 1 0"/>
<feBlend mode="normal" in2="BackgroundImageFix" result="effect1_dropShadow_1316_64"/>
<feColorMatrix in="SourceAlpha" type="matrix" values="0 0 0 0 0 0 0 0 0 0 0 0 0 0 0 0 0 0 127 0" result="hardAlpha"/>
<feOffset/>
<feColorMatrix type="matrix" values="0 0 0 0 1 0 0 0 0 1 0 0 0 0 1 0 0 0 1 0"/>
<feBlend mode="normal" in2="effect1_dropShadow_1316_64" result="effect2_dropShadow_1316_64"/>
<feColorMatrix in="SourceAlpha" type="matrix" values="0 0 0 0 0 0 0 0 0 0 0 0 0 0 0 0 0 0 127 0" result="hardAlpha"/>
<feOffset/>
<feColorMatrix type="matrix" values="0 0 0 0 1 0 0 0 0 1 0 0 0 0 1 0 0 0 1 0"/>
<feBlend mode="normal" in2="effect2_dropShadow_1316_64" result="effect3_dropShadow_1316_64"/>
<feColorMatrix in="SourceAlpha" type="matrix" values="0 0 0 0 0 0 0 0 0 0 0 0 0 0 0 0 0 0 127 0" result="hardAlpha"/>
<feOffset/>
<feColorMatrix type="matrix" values="0 0 0 0 1 0 0 0 0 1 0 0 0 0 1 0 0 0 1 0"/>
<feBlend mode="normal" in2="effect3_dropShadow_1316_64" result="effect4_dropShadow_1316_64"/>
<feColorMatrix in="SourceAlpha" type="matrix" values="0 0 0 0 0 0 0 0 0 0 0 0 0 0 0 0 0 0 127 0" result="hardAlpha"/>
<feOffset/>
<feColorMatrix type="matrix" values="0 0 0 0 1 0 0 0 0 1 0 0 0 0 1 0 0 0 1 0"/>
<feBlend mode="normal" in2="effect4_dropShadow_1316_64" result="effect5_dropShadow_1316_64"/>
<feColorMatrix in="SourceAlpha" type="matrix" values="0 0 0 0 0 0 0 0 0 0 0 0 0 0 0 0 0 0 127 0" result="hardAlpha"/>
<feOffset/>
<feColorMatrix type="matrix" values="0 0 0 0 1 0 0 0 0 1 0 0 0 0 1 0 0 0 1 0"/>
<feBlend mode="normal" in2="effect5_dropShadow_1316_64" result="effect6_dropShadow_1316_64"/>
<feBlend mode="normal" in="SourceGraphic" in2="effect6_dropShadow_1316_64" result="shape"/>
</filter>
</defs>
</svg>
